<svg width="640" height="640" viewBox="0 0 640 640" fill="none" xmlns="http://www.w3.org/2000/svg">
  <defs>
    <linearGradient id="rr-bg" x1="104" y1="96" x2="536" y2="544" gradientUnits="userSpaceOnUse">
      <stop stop-color="#13233F"/>
      <stop offset="1" stop-color="#081224"/>
    </linearGradient>
    <linearGradient id="rr-room" x1="192" y1="246" x2="472" y2="520" gradientUnits="userSpaceOnUse">
      <stop stop-color="#FFF7DE"/>
      <stop offset="1" stop-color="#E8D29B"/>
    </linearGradient>
    <linearGradient id="rr-floor" x1="246" y1="442" x2="458" y2="542" gradientUnits="userSpaceOnUse">
      <stop stop-color="#DBB165"/>
      <stop offset="1" stop-color="#B47A2F"/>
    </linearGradient>
    <linearGradient id="rr-wood" x1="0" y1="0" x2="1" y2="1">
      <stop stop-color="#D8A24A"/>
      <stop offset="1" stop-color="#9A6021"/>
    </linearGradient>
    <linearGradient id="rr-raven" x1="202" y1="120" x2="450" y2="334" gradientUnits="userSpaceOnUse">
      <stop stop-color="#38537E"/>
      <stop offset="0.52" stop-color="#12233F"/>
      <stop offset="1" stop-color="#050C18"/>
    </linearGradient>
    <linearGradient id="rr-wing" x1="220" y1="188" x2="332" y2="320" gradientUnits="userSpaceOnUse">
      <stop stop-color="#DCE8F9"/>
      <stop offset="1" stop-color="#6F8EBB"/>
    </linearGradient>
    <linearGradient id="rr-beak" x1="0" y1="0" x2="1" y2="1">
      <stop stop-color="#FFE66C"/>
      <stop offset="1" stop-color="#F7A600"/>
    </linearGradient>
    <radialGradient id="rr-glow" cx="0" cy="0" r="1" gradientUnits="userSpaceOnUse" gradientTransform="translate(399 334) rotate(90) scale(182 170)">
      <stop stop-color="#FFEF9A" stop-opacity="0.9"/>
      <stop offset="1" stop-color="#FFEF9A" stop-opacity="0"/>
    </radialGradient>
    <filter id="rr-shadow" x="122" y="84" width="418" height="330" filterUnits="userSpaceOnUse" color-interpolation-filters="sRGB">
      <feDropShadow dx="0" dy="16" stdDeviation="18" flood-color="#09101F" flood-opacity="0.36"/>
    </filter>
  </defs>

  <rect width="640" height="640" rx="168" fill="url(#rr-bg)"/>
  <rect width="640" height="640" rx="168" fill="url(#rr-glow)"/>

  <g>
    <rect x="180" y="234" width="274" height="286" rx="42" fill="#F9ECD0" stroke="#E9CE8C" stroke-width="9"/>
    <path d="M212 266H422C434.15 266 444 275.85 444 288V476C444 489.255 433.255 500 420 500H240C224.536 500 212 487.464 212 472V266Z" fill="url(#rr-room)"/>
    <path d="M212 420H444V476C444 489.255 433.255 500 420 500H240C224.536 500 212 487.464 212 472V420Z" fill="url(#rr-floor)"/>
    <path d="M307 255V415" stroke="#E5C77D" stroke-width="7" stroke-linecap="round"/>
    <path d="M362 255V421" stroke="#E5C77D" stroke-width="7" stroke-linecap="round"/>
    <path d="M218 326H438" stroke="#E5C77D" stroke-width="7" stroke-linecap="round"/>
    <path d="M218 388H438" stroke="#E5C77D" stroke-width="7" stroke-linecap="round"/>
    <circle cx="399" cy="344" r="24" fill="#FFD454" stroke="#D88A08" stroke-width="6"/>

    <rect x="224" y="364" width="84" height="96" rx="10" fill="url(#rr-wood)"/>
    <rect x="224" y="348" width="92" height="20" rx="10" fill="#F6F1E7"/>
    <rect x="238" y="393" width="55" height="6" rx="3" fill="#F4D9A8"/>
    <rect x="238" y="427" width="55" height="6" rx="3" fill="#F4D9A8"/>
    <circle cx="260" cy="358" r="18" fill="#F6F4EF"/>
    <rect x="347" y="392" width="126" height="78" rx="39" fill="#FAFAF8" stroke="#DDD5C7" stroke-width="5"/>
    <rect x="272" y="480" width="151" height="14" rx="7" fill="#F5E8C4" opacity="0.95"/>

    <path d="M479 382C497.225 382 512 396.775 512 415V446H446V415C446 396.775 460.775 382 479 382Z" fill="#7BB341"/>
    <path d="M485 409V468" stroke="#7C5B29" stroke-width="6" stroke-linecap="round"/>
    <circle cx="466" cy="401" r="20" fill="#88BC4C"/>
    <circle cx="494" cy="396" r="23" fill="#91C553"/>
    <circle cx="510" cy="420" r="20" fill="#6FA73C"/>
    <path d="M448 457H509L502 500C500.218 510.948 490.766 519 479.674 519H478.326C467.234 519 457.782 510.948 456 500L448 457Z" fill="#D58D32"/>
    <path d="M232 338L244 310C247.645 301.497 259.733 301.174 263.829 309.471L277 336H232Z" fill="#FFD666"/>
  </g>

  <g filter="url(#rr-shadow)">
    <path d="M192 328C242 316 296 265 320 214C338 176 376 156 417 160C447 163 474 180 487 204C452 204 419 219 391 248C373 267 361 291 350 318C328 368 279 408 214 416L192 328Z" fill="url(#rr-raven)"/>
    <path d="M225 260C258 214 310 193 353 208C334 241 302 272 245 304L196 306L225 260Z" fill="url(#rr-raven)"/>
    <path d="M268 227C302 202 340 198 378 215C361 242 330 262 280 274L249 266L268 227Z" fill="url(#rr-wing)"/>
    <path d="M224 338C174 365 149 386 126 415C174 411 221 391 262 354L224 338Z" fill="#14305C"/>
    <path d="M275 305C324 333 364 340 420 328C414 276 408 235 430 186C413 172 389 165 368 168C323 173 298 203 280 238C269 259 260 277 246 292L275 305Z" fill="url(#rr-raven)"/>
    <path d="M394 187C431 188 463 216 468 246C482 240 497 241 514 250C497 266 474 274 444 275L394 187Z" fill="url(#rr-beak)"/>
    <circle cx="392" cy="223" r="18" fill="#F9C742"/>
    <circle cx="392" cy="223" r="9" fill="#0A1222"/>
    <path d="M295 405L328 430" stroke="#0A1222" stroke-width="11" stroke-linecap="round"/>
    <path d="M341 404L371 430" stroke="#0A1222" stroke-width="11" stroke-linecap="round"/>
    <path d="M299 427H355" stroke="#0A1222" stroke-width="11" stroke-linecap="round"/>
  </g>

  <g fill="#FFD454">
    <path d="M457 163L462.528 177.472L477 183L462.528 188.528L457 203L451.472 188.528L437 183L451.472 177.472L457 163Z"/>
    <path d="M503 186L507.126 196.874L518 201L507.126 205.126L503 216L498.874 205.126L488 201L498.874 196.874L503 186Z"/>
  </g>
</svg>
